<svg width="170" height="32" viewBox="0 0 170 32" fill="none" xmlns="http://www.w3.org/2000/svg">
<path d="M170 0H0V32H170V0Z" fill="#110606"/>
<path d="M7 0.285706H9.57143V2.85713H7V0.285706ZM9.57143 0.285706H12.1429V2.85713H9.57143V0.285706ZM12.1429 0.285706H14.7143V2.85713H12.1429V0.285706ZM14.7143 0.285706H17.2857V2.85713H14.7143V0.285706ZM17.2857 0.285706H19.8571V2.85713H17.2857V0.285706ZM19.8571 0.285706H22.4286V2.85713H19.8571V0.285706ZM19.8571 2.85713H22.4286V5.42856H19.8571V2.85713ZM17.2857 2.85713H19.8571V5.42856H17.2857V2.85713ZM14.7143 2.85713H17.2857V5.42856H14.7143V2.85713ZM12.1429 2.85713H14.7143V5.42856H12.1429V2.85713ZM9.57143 2.85713H12.1429V5.42856H9.57143V2.85713ZM7 2.85713H9.57143V5.42856H7V2.85713ZM12.1429 5.42856H14.7143V7.99999H12.1429V5.42856ZM12.1429 7.99999H14.7143V10.5714H12.1429V7.99999ZM12.1429 10.5714H14.7143V13.1429H12.1429V10.5714ZM12.1429 13.1429H14.7143V15.7143H12.1429V13.1429ZM12.1429 15.7143H14.7143V18.2857H12.1429V15.7143ZM12.1429 18.2857H14.7143V20.8571H12.1429V18.2857ZM14.7143 15.7143H17.2857V18.2857H14.7143V15.7143ZM14.7143 13.1429H17.2857V15.7143H14.7143V13.1429ZM14.7143 10.5714H17.2857V13.1429H14.7143V10.5714ZM14.7143 7.99999H17.2857V10.5714H14.7143V7.99999ZM14.7143 5.42856H17.2857V7.99999H14.7143V5.42856ZM14.7143 18.2857H17.2857V20.8571H14.7143V18.2857ZM14.7143 20.8571H17.2857V23.4286H14.7143V20.8571ZM14.7143 23.4286H17.2857V26H14.7143V23.4286ZM12.1429 23.4286H14.7143V26H12.1429V23.4286ZM12.1429 20.8571H14.7143V23.4286H12.1429V20.8571ZM30.1429 5.42856H32.7143V7.99999H30.1429V5.42856ZM27.5714 5.42856H30.1429V7.99999H27.5714V5.42856ZM27.5714 7.99999H30.1429V10.5714H27.5714V7.99999ZM30.1429 7.99999H32.7143V10.5714H30.1429V7.99999ZM32.7143 5.42856H35.2857V7.99999H32.7143V5.42856ZM35.2857 5.42856H37.8571V7.99999H35.2857V5.42856ZM37.8571 5.42856H40.4286V7.99999H37.8571V5.42856ZM37.8571 7.99999H40.4286V10.5714H37.8571V7.99999ZM35.2857 7.99999H37.8571V10.5714H35.2857V7.99999ZM40.4286 7.99999H43V10.5714H40.4286V7.99999ZM40.4286 10.5714H43V13.1429H40.4286V10.5714ZM40.4286 20.8571H43V23.4286H40.4286V20.8571ZM37.8571 20.8571H40.4286V23.4286H37.8571V20.8571ZM37.8571 10.5714H40.4286V13.1429H37.8571V10.5714ZM35.2857 20.8571H37.8571V23.4286H35.2857V20.8571ZM37.8571 23.4286H40.4286V26H37.8571V23.4286ZM35.2857 23.4286H37.8571V26H35.2857V23.4286ZM32.7143 23.4286H35.2857V26H32.7143V23.4286ZM30.1429 23.4286H32.7143V26H30.1429V23.4286ZM27.5714 23.4286H30.1429V26H27.5714V23.4286ZM27.5714 20.8571H30.1429V23.4286H27.5714V20.8571ZM30.1429 20.8571H32.7143V23.4286H30.1429V20.8571ZM27.5714 18.2857H30.1429V20.8571H27.5714V18.2857ZM25 20.8571H27.5714V23.4286H25V20.8571ZM25 18.2857H27.5714V20.8571H25V18.2857ZM25 15.7143H27.5714V18.2857H25V15.7143ZM25 13.1429H27.5714V15.7143H25V13.1429ZM25 10.5714H27.5714V13.1429H25V10.5714ZM25 7.99999H27.5714V10.5714H25V7.99999ZM27.5714 10.5714H30.1429V13.1429H27.5714V10.5714ZM27.5714 13.1429H30.1429V15.7143H27.5714V13.1429ZM27.5714 15.7143H30.1429V18.2857H27.5714V15.7143ZM32.7143 20.8571H35.2857V23.4286H32.7143V20.8571ZM32.7143 7.99999H35.2857V10.5714H32.7143V7.99999ZM37.8571 13.1429H40.4286V15.7143H37.8571V13.1429ZM40.4286 13.1429H43V15.7143H40.4286V13.1429ZM30.1429 15.7143H32.7143V18.2857H30.1429V15.7143ZM32.7143 15.7143H35.2857V18.2857H32.7143V15.7143ZM35.2857 15.7143H37.8571V18.2857H35.2857V15.7143ZM37.8571 15.7143H40.4286V18.2857H37.8571V15.7143ZM40.4286 15.7143H43V18.2857H40.4286V15.7143ZM35.2857 13.1429H37.8571V15.7143H35.2857V13.1429ZM32.7143 13.1429H35.2857V15.7143H32.7143V13.1429ZM30.1429 13.1429H32.7143V15.7143H30.1429V13.1429ZM45.5781 7.99999H48.1496V10.5714H45.5781V7.99999ZM48.1496 10.5714H50.721V13.1429H48.1496V10.5714ZM45.5781 10.5714H48.1496V13.1429H45.5781V10.5714ZM45.5781 13.1429H48.1496V15.7143H45.5781V13.1429ZM48.1496 13.1429H50.721V15.7143H48.1496V13.1429ZM48.1496 15.7143H50.721V18.2857H48.1496V15.7143ZM50.721 15.7143H53.2924V18.2857H50.721V15.7143ZM53.2924 15.7143H55.8638V18.2857H53.2924V15.7143ZM55.8638 13.1429H58.4353V15.7143H55.8638V13.1429ZM53.2924 13.1429H55.8638V15.7143H53.2924V13.1429ZM50.721 13.1429H53.2924V15.7143H50.721V13.1429ZM55.8638 15.7143H58.4353V18.2857H55.8638V15.7143ZM58.4353 15.7143H61.0067V18.2857H58.4353V15.7143ZM58.4353 18.2857H61.0067V20.8571H58.4353V18.2857ZM55.8638 18.2857H58.4353V20.8571H55.8638V18.2857ZM55.8638 20.8571H58.4353V23.4286H55.8638V20.8571ZM58.4353 20.8571H61.0067V23.4286H58.4353V20.8571ZM55.8638 23.4286H58.4353V26H55.8638V23.4286ZM53.2924 20.8571H55.8638V23.4286H53.2924V20.8571ZM50.721 20.8571H53.2924V23.4286H50.721V20.8571ZM48.1496 20.8571H50.721V23.4286H48.1496V20.8571ZM45.5781 20.8571H48.1496V23.4286H45.5781V20.8571ZM48.1496 23.4286H50.721V26H48.1496V23.4286ZM50.721 23.4286H53.2924V26H50.721V23.4286ZM53.2924 23.4286H55.8638V26H53.2924V23.4286ZM58.4353 7.99999H61.0067V10.5714H58.4353V7.99999ZM55.8638 7.99999H58.4353V10.5714H55.8638V7.99999ZM55.8638 5.42856H58.4353V7.99999H55.8638V5.42856ZM53.2924 5.42856H55.8638V7.99999H53.2924V5.42856ZM50.721 5.42856H53.2924V7.99999H50.721V5.42856ZM48.1496 5.42856H50.721V7.99999H48.1496V5.42856ZM48.1496 7.99999H50.721V10.5714H48.1496V7.99999ZM50.721 7.99999H53.2924V10.5714H50.721V7.99999ZM53.2924 7.99999H55.8638V10.5714H53.2924V7.99999ZM73.8638 20.8571H76.4353V23.4286H73.8638V20.8571ZM73.8638 23.4286H76.4353V26H73.8638V23.4286ZM71.2924 23.4286H73.8638V26H71.2924V23.4286ZM71.2924 20.8571H73.8638V23.4286H71.2924V20.8571ZM68.721 23.4286H71.2924V26H68.721V23.4286ZM68.721 20.8571H71.2924V23.4286H68.721V20.8571ZM66.1496 20.8571H68.721V23.4286H66.1496V20.8571ZM66.1496 18.2857H68.721V20.8571H66.1496V18.2857ZM66.1496 15.7143H68.721V18.2857H66.1496V15.7143ZM66.1496 13.1429H68.721V15.7143H66.1496V13.1429ZM66.1496 10.5714H68.721V13.1429H66.1496V10.5714ZM66.1496 7.99999H68.721V10.5714H66.1496V7.99999ZM68.721 15.7143H71.2924V18.2857H68.721V15.7143ZM68.721 18.2857H71.2924V20.8571H68.721V18.2857ZM68.721 13.1429H71.2924V15.7143H68.721V13.1429ZM68.721 10.5714H71.2924V13.1429H68.721V10.5714ZM68.721 0.285706H71.2924V2.85713H68.721V0.285706ZM68.721 2.85713H71.2924V5.42856H68.721V2.85713ZM68.721 5.42856H71.2924V7.99999H68.721V5.42856ZM68.721 7.99999H71.2924V10.5714H68.721V7.99999ZM66.1496 5.42856H68.721V7.99999H66.1496V5.42856ZM63.5781 7.99999H66.1496V10.5714H63.5781V7.99999ZM71.2924 7.99999H73.8638V10.5714H71.2924V7.99999ZM73.8638 7.99999H76.4353V10.5714H73.8638V7.99999ZM66.1496 2.85713H68.721V5.42856H66.1496V2.85713ZM63.5781 10.5714H66.1496V13.1429H63.5781V10.5714ZM71.2924 10.5714H73.8638V13.1429H71.2924V10.5714ZM73.8638 10.5714H76.4353V13.1429H73.8638V10.5714Z" fill="#E9444E"/>
<path d="M89.2656 0.285706H91.8371V2.85713H89.2656V0.285706ZM91.8371 0.285706H94.4085V2.85713H91.8371V0.285706ZM91.8371 2.85713H94.4085V5.42856H91.8371V2.85713ZM91.8371 5.42856H94.4085V7.99999H91.8371V5.42856ZM91.8371 7.99999H94.4085V10.5714H91.8371V7.99999ZM89.2656 7.99999H91.8371V10.5714H89.2656V7.99999ZM89.2656 5.42856H91.8371V7.99999H89.2656V5.42856ZM89.2656 2.85713H91.8371V5.42856H89.2656V2.85713ZM89.2656 10.5714H91.8371V13.1429H89.2656V10.5714ZM89.2656 13.1429H91.8371V15.7143H89.2656V13.1429ZM89.2656 15.7143H91.8371V18.2857H89.2656V15.7143ZM91.8371 13.1429H94.4085V15.7143H91.8371V13.1429ZM91.8371 10.5714H94.4085V13.1429H91.8371V10.5714ZM91.8371 15.7143H94.4085V18.2857H91.8371V15.7143ZM91.8371 18.2857H94.4085V20.8571H91.8371V18.2857ZM89.2656 20.8571H91.8371V23.4286H89.2656V20.8571ZM89.2656 18.2857H91.8371V20.8571H89.2656V18.2857ZM89.2656 23.4286H91.8371V26H89.2656V23.4286ZM91.8371 23.4286H94.4085V26H91.8371V23.4286ZM91.8371 20.8571H94.4085V23.4286H91.8371V20.8571ZM94.4085 23.4286H96.9799V26H94.4085V23.4286ZM96.9799 23.4286H99.5513V26H96.9799V23.4286ZM99.5513 23.4286H102.123V26H99.5513V23.4286ZM99.5513 20.8571H102.123V23.4286H99.5513V20.8571ZM96.9799 20.8571H99.5513V23.4286H96.9799V20.8571ZM94.4085 20.8571H96.9799V23.4286H94.4085V20.8571ZM109.83 5.42856H112.402V7.99999H109.83V5.42856ZM107.259 5.42856H109.83V7.99999H107.259V5.42856ZM107.259 7.99999H109.83V10.5714H107.259V7.99999ZM109.83 7.99999H112.402V10.5714H109.83V7.99999ZM112.402 5.42856H114.973V7.99999H112.402V5.42856ZM114.973 5.42856H117.545V7.99999H114.973V5.42856ZM117.545 5.42856H120.116V7.99999H117.545V5.42856ZM117.545 7.99999H120.116V10.5714H117.545V7.99999ZM114.973 7.99999H117.545V10.5714H114.973V7.99999ZM117.545 13.1429H120.116V15.7143H117.545V13.1429ZM120.116 7.99999H122.688V10.5714H120.116V7.99999ZM120.116 10.5714H122.688V13.1429H120.116V10.5714ZM120.116 13.1429H122.688V15.7143H120.116V13.1429ZM120.116 15.7143H122.688V18.2857H120.116V15.7143ZM120.116 18.2857H122.688V20.8571H120.116V18.2857ZM120.116 20.8571H122.688V23.4286H120.116V20.8571ZM117.545 20.8571H120.116V23.4286H117.545V20.8571ZM117.545 18.2857H120.116V20.8571H117.545V18.2857ZM117.545 15.7143H120.116V18.2857H117.545V15.7143ZM117.545 10.5714H120.116V13.1429H117.545V10.5714ZM114.973 20.8571H117.545V23.4286H114.973V20.8571ZM117.545 23.4286H120.116V26H117.545V23.4286ZM114.973 23.4286H117.545V26H114.973V23.4286ZM112.402 23.4286H114.973V26H112.402V23.4286ZM109.83 23.4286H112.402V26H109.83V23.4286ZM107.259 23.4286H109.83V26H107.259V23.4286ZM107.259 20.8571H109.83V23.4286H107.259V20.8571ZM109.83 20.8571H112.402V23.4286H109.83V20.8571ZM107.259 18.2857H109.83V20.8571H107.259V18.2857ZM104.688 20.8571H107.259V23.4286H104.688V20.8571ZM104.688 18.2857H107.259V20.8571H104.688V18.2857ZM104.688 15.7143H107.259V18.2857H104.688V15.7143ZM104.688 13.1429H107.259V15.7143H104.688V13.1429ZM104.688 10.5714H107.259V13.1429H104.688V10.5714ZM104.688 7.99999H107.259V10.5714H104.688V7.99999ZM107.259 10.5714H109.83V13.1429H107.259V10.5714ZM107.259 13.1429H109.83V15.7143H107.259V13.1429ZM107.259 15.7143H109.83V18.2857H107.259V15.7143ZM112.402 20.8571H114.973V23.4286H112.402V20.8571ZM112.402 7.99999H114.973V10.5714H112.402V7.99999ZM140.694 5.42856H143.266V7.99999H140.694V5.42856ZM138.123 5.42856H140.694V7.99999H138.123V5.42856ZM135.551 5.42856H138.123V7.99999H135.551V5.42856ZM132.98 5.42856H135.551V7.99999H132.98V5.42856ZM130.408 5.42856H132.98V7.99999H130.408V5.42856ZM130.408 7.99999H132.98V10.5714H130.408V7.99999ZM132.98 7.99999H135.551V10.5714H132.98V7.99999ZM135.551 7.99999H138.123V10.5714H135.551V7.99999ZM138.123 7.99999H140.694V10.5714H138.123V7.99999ZM140.694 7.99999H143.266V10.5714H140.694V7.99999ZM127.837 5.42856H130.408V7.99999H127.837V5.42856ZM127.837 7.99999H130.408V10.5714H127.837V7.99999ZM127.837 10.5714H130.408V13.1429H127.837V10.5714ZM125.266 10.5714H127.837V13.1429H125.266V10.5714ZM125.266 7.99999H127.837V10.5714H125.266V7.99999ZM125.266 13.1429H127.837V15.7143H125.266V13.1429ZM125.266 15.7143H127.837V18.2857H125.266V15.7143ZM127.837 18.2857H130.408V20.8571H127.837V18.2857ZM127.837 15.7143H130.408V18.2857H127.837V15.7143ZM127.837 13.1429H130.408V15.7143H127.837V13.1429ZM125.266 18.2857H127.837V20.8571H125.266V18.2857ZM127.837 20.8571H130.408V23.4286H127.837V20.8571ZM130.408 20.8571H132.98V23.4286H130.408V20.8571ZM132.98 20.8571H135.551V23.4286H132.98V20.8571ZM138.123 20.8571H140.694V23.4286H138.123V20.8571ZM140.694 20.8571H143.266V23.4286H140.694V20.8571ZM140.694 18.2857H143.266V20.8571H140.694V18.2857ZM138.123 18.2857H140.694V20.8571H138.123V18.2857ZM135.551 18.2857H138.123V20.8571H135.551V18.2857ZM132.98 18.2857H135.551V20.8571H132.98V18.2857ZM130.408 18.2857H132.98V20.8571H130.408V18.2857ZM138.123 15.7143H140.694V18.2857H138.123V15.7143ZM138.123 13.1429H140.694V15.7143H138.123V13.1429ZM138.123 10.5714H140.694V13.1429H138.123V10.5714ZM140.694 10.5714H143.266V13.1429H140.694V10.5714ZM140.694 13.1429H143.266V15.7143H140.694V13.1429ZM140.694 15.7143H143.266V18.2857H140.694V15.7143ZM138.123 23.4286H140.694V26H138.123V23.4286ZM138.123 26H140.694V28.5714H138.123V26ZM140.694 26H143.266V28.5714H140.694V26ZM140.694 23.4286H143.266V26H140.694V23.4286ZM125.266 26H127.837V28.5714H125.266V26ZM127.837 26H130.408V28.5714H127.837V26ZM127.837 28.5714H130.408V31.1429H127.837V28.5714ZM130.408 28.5714H132.98V31.1429H130.408V28.5714ZM130.408 26H132.98V28.5714H130.408V26ZM132.98 26H135.551V28.5714H132.98V26ZM135.551 26H138.123V28.5714H135.551V26ZM138.123 28.5714H140.694V31.1429H138.123V28.5714ZM135.551 28.5714H138.123V31.1429H135.551V28.5714ZM132.98 28.5714H135.551V31.1429H132.98V28.5714ZM150.987 5.42856H153.558V7.99999H150.987V5.42856ZM148.415 5.42856H150.987V7.99999H148.415V5.42856ZM148.415 7.99999H150.987V10.5714H148.415V7.99999ZM150.987 7.99999H153.558V10.5714H150.987V7.99999ZM153.558 5.42856H156.129V7.99999H153.558V5.42856ZM156.129 5.42856H158.701V7.99999H156.129V5.42856ZM158.701 5.42856H161.272V7.99999H158.701V5.42856ZM158.701 7.99999H161.272V10.5714H158.701V7.99999ZM156.129 7.99999H158.701V10.5714H156.129V7.99999ZM158.701 13.1429H161.272V15.7143H158.701V13.1429ZM161.272 7.99999H163.844V10.5714H161.272V7.99999ZM161.272 10.5714H163.844V13.1429H161.272V10.5714ZM161.272 13.1429H163.844V15.7143H161.272V13.1429ZM161.272 15.7143H163.844V18.2857H161.272V15.7143ZM161.272 18.2857H163.844V20.8571H161.272V18.2857ZM161.272 20.8571H163.844V23.4286H161.272V20.8571ZM158.701 20.8571H161.272V23.4286H158.701V20.8571ZM158.701 18.2857H161.272V20.8571H158.701V18.2857ZM158.701 15.7143H161.272V18.2857H158.701V15.7143ZM158.701 10.5714H161.272V13.1429H158.701V10.5714ZM156.129 20.8571H158.701V23.4286H156.129V20.8571ZM158.701 23.4286H161.272V26H158.701V23.4286ZM156.129 23.4286H158.701V26H156.129V23.4286ZM153.558 23.4286H156.129V26H153.558V23.4286ZM150.987 23.4286H153.558V26H150.987V23.4286ZM148.415 23.4286H150.987V26H148.415V23.4286ZM148.415 20.8571H150.987V23.4286H148.415V20.8571ZM150.987 20.8571H153.558V23.4286H150.987V20.8571ZM148.415 18.2857H150.987V20.8571H148.415V18.2857ZM145.844 20.8571H148.415V23.4286H145.844V20.8571ZM145.844 18.2857H148.415V20.8571H145.844V18.2857ZM145.844 15.7143H148.415V18.2857H145.844V15.7143ZM145.844 13.1429H148.415V15.7143H145.844V13.1429ZM145.844 10.5714H148.415V13.1429H145.844V10.5714ZM145.844 7.99999H148.415V10.5714H145.844V7.99999ZM148.415 10.5714H150.987V13.1429H148.415V10.5714ZM148.415 13.1429H150.987V15.7143H148.415V13.1429ZM148.415 15.7143H150.987V18.2857H148.415V15.7143ZM153.558 20.8571H156.129V23.4286H153.558V20.8571ZM153.558 7.99999H156.129V10.5714H153.558V7.99999Z" fill="#F1F1F1"/>
</svg>
